<svg xmlns="http://www.w3.org/2000/svg" version="1.1" xmlns:xlink="http://www.w3.org/1999/xlink" xmlns:svgjs="http://svgjs.dev/svgjs" width="2000" height="1247" viewBox="0 0 2000 1247"><g transform="matrix(1,0,0,1,-1.2121212121212466,72.01538363390989)"><svg viewBox="0 0 396 247" data-background-color="#1c1c1c" preserveAspectRatio="xMidYMid meet" height="1247" width="2000" xmlns="http://www.w3.org/2000/svg" xmlns:xlink="http://www.w3.org/1999/xlink"><g id="tight-bounds" transform="matrix(1,0,0,1,0.2400000000000091,-0.09999999999999432)"><svg viewBox="0 0 395.52 247.2" height="247.2" width="395.52"><g><svg></svg></g><g><svg viewBox="0 0 395.52 247.2" height="247.2" width="395.52"><g transform="matrix(1,0,0,1,97.187752138114,47.215199999999996)"><svg viewBox="0 0 201.14449572377197 152.7696" height="152.7696" width="201.14449572377197"><g><svg viewBox="0 0 244.43135999999998 185.64604992192596" height="152.7696" width="201.14449572377197"><g transform="matrix(1,0,0,1,0,133.10527514284786)"><svg viewBox="0 0 244.43135999999998 52.54077477907809" height="52.54077477907809" width="244.43135999999998"><g id="textblocktransform"><svg viewBox="0 0 244.43135999999998 52.54077477907809" height="52.54077477907809" width="244.43135999999998" id="textblock"><g><svg viewBox="0 0 244.43135999999998 52.54077477907809" height="52.54077477907809" width="244.43135999999998"><g transform="matrix(1,0,0,1,0,0)"><svg width="244.43135999999998" viewBox="4.95 -35 209.33 45" height="52.54077477907809" data-palette-color="#508bd8"><path d="M6.45-1.5L25.85-1.5 25.85 0 4.95 0 4.95-35 6.45-35 6.45-1.5ZM45.95-27.48Q44.25-28 41.75-28 39.25-28 37.55-27.48 35.85-26.95 34.42-25.53 33-24.1 32.3-21.38 31.6-18.65 31.6-14.5 31.6-10.35 32.3-7.63 33-4.9 34.42-3.48 35.85-2.05 37.55-1.53 39.25-1 41.75-1 44.25-1 45.95-1.53 47.65-2.05 49.07-3.48 50.5-4.9 51.2-7.63 51.9-10.35 51.9-14.5 51.9-18.65 51.2-21.38 50.5-24.1 49.07-25.53 47.65-26.95 45.95-27.48ZM50.7-3.05Q48 0.5 41.75 0.5 35.5 0.5 32.8-3.05 30.1-6.6 30.1-14.5 30.1-22.4 32.8-25.95 35.5-29.5 41.75-29.5 48-29.5 50.7-25.95 53.4-22.4 53.4-14.5 53.4-6.6 50.7-3.05ZM75.65-19.5L73.3-19.5 79.95-25.05Q77.75-28 72.05-28L72.05-28Q69.55-28 67.84-27.48 66.15-26.95 64.72-25.53 63.3-24.1 62.6-21.38 61.9-18.65 61.9-14.5 61.9-10.35 62.6-7.63 63.3-4.9 64.72-3.48 66.15-2.05 67.84-1.53 69.55-1 72.05-1L72.05-1Q77.7-1 79.9-3.9L79.9-3.9 79.9-12.75 81.4-12.75 81.4 0.45Q81.4 10 72.65 10L72.65 10 66.8 10 66.8 8.5 72.65 8.5Q76.4 8.5 78.15 6.53 79.9 4.55 79.9-1L79.9-1 79.9-1.75Q77.2 0.5 72.05 0.5L72.05 0.5Q65.8 0.5 63.1-3.05 60.4-6.6 60.4-14.5 60.4-22.4 63.1-25.95 65.8-29.5 72.05-29.5L72.05-29.5Q79.3-29.5 81.9-24.75L81.9-24.75 75.65-19.5ZM105.54-18.4L102.74-16.8 101.99-18.1 104.79-19.7Q108.24-21.6 108.24-25.75L108.24-25.75Q108.24-33.5 96.44-33.5L96.44-33.5 91.84-33.5 91.84 0 90.34 0 90.34-35 96.44-35Q103.04-35 106.39-32.58 109.74-30.15 109.74-25.75L109.74-25.75Q109.74-20.75 105.54-18.4L105.54-18.4ZM115.94-29L117.44-29 117.44-14.5Q117.44-7.05 119.82-4.03 122.19-1 126.34-1 130.49-1 132.87-4.03 135.24-7.05 135.24-14.5L135.24-14.5 135.24-29 136.74-29 136.74-14.5Q136.74 0.5 126.34 0.5 115.94 0.5 115.94-14.5L115.94-14.5 115.94-29ZM147.24-1.5L162.44-1.5 162.44 0 145.74 0 145.74-29 147.24-29 147.24-1.5ZM175.84-29.6L175.84-29.6Q182.03-29.6 184.63-26.85L184.63-26.85 183.63-25.75Q181.24-28.1 176.03-28.1L176.03-28.1Q168.24-28.1 168.24-21.9L168.24-21.9Q168.24-19.5 170.13-18.07 172.03-16.65 174.76-15.9 177.49-15.15 180.21-14.33 182.94-13.5 184.84-11.68 186.74-9.85 186.74-6.9L186.74-6.9Q186.74-3.45 183.88-1.4 181.03 0.65 175.63 0.65L175.63 0.65Q172.99 0.65 170.41-0.05 167.84-0.75 166.59-2.1L166.59-2.1 167.59-3.2Q170.13-0.85 175.44-0.85L175.44-0.85Q180.28-0.85 182.76-2.65 185.24-4.45 185.24-6.85L185.24-6.85Q185.24-9.35 183.34-10.9 181.44-12.45 178.71-13.23 175.99-14 173.26-14.83 170.53-15.65 168.63-17.4 166.74-19.15 166.74-22L166.74-22Q166.74-25.85 169.31-27.73 171.88-29.6 175.84-29.6ZM212.33-3.95L213.43-2.95Q210.68 0.5 204.43 0.5 198.18 0.5 195.48-3.05 192.78-6.6 192.78-14.5 192.78-22.4 195.48-25.95 198.18-29.5 204.43-29.5L204.43-29.5Q211.68-29.5 214.28-24.75L214.28-24.75 202.03-14.5 199.68-14.5 212.33-25.05Q210.13-28 204.43-28L204.43-28Q201.93-28 200.23-27.48 198.53-26.95 197.11-25.53 195.68-24.1 194.98-21.38 194.28-18.65 194.28-14.5 194.28-10.35 194.98-7.63 195.68-4.9 197.11-3.48 198.53-2.05 200.23-1.53 201.93-1 204.43-1L204.43-1Q210.13-1 212.33-3.95L212.33-3.95Z" opacity="1" transform="matrix(1,0,0,1,0,0)" fill="#508bd8" class="wordmark-text-0" data-fill-palette-color="primary" id="text-0"></path></svg></g></svg></g></svg></g></svg></g><g transform="matrix(1,0,0,1,61.864850401948885,0)"><svg viewBox="0 0 120.70165919610221 120.70165919610221" height="120.70165919610221" width="120.70165919610221"><g><svg></svg></g><g id="icon-0"><svg viewBox="0 0 120.70165919610221 120.70165919610221" height="120.70165919610221" width="120.70165919610221"><g><rect width="109.74910123201145" height="109.74910123201145" x="5.476278982045379" y="5.476278982045379" fill="#4a596d" data-fill-palette-color="accent"></rect><rect width="109.74910123201145" height="109.74910123201145" x="1.7763568394002505e-15" y="10.952557964090756" fill="#4a596d" opacity="0.5" data-fill-palette-color="accent"></rect></g><g transform="matrix(1,0,0,1,15.64651137727251,31.831270509829793)"><svg viewBox="0 0 89.40863644155719 57.03911817644263" height="57.03911817644263" width="89.40863644155719"><g><svg xmlns="http://www.w3.org/2000/svg" xmlns:xlink="http://www.w3.org/1999/xlink" version="1.1" x="0" y="0" viewBox="8 24 83.836 53.483999999999995" enable-background="new 0 0 100 100" xml:space="preserve" height="57.03911817644263" width="89.40863644155719" class="icon-z$-0" data-fill-palette-color="background" id="z$-0"><path d="M83.924 24c-4.363 0-7.913 3.55-7.913 7.913 0 1.461 0.405 2.825 1.098 4.001L64.486 48.536c-1.13-0.622-2.426-0.978-3.804-0.978-3.191 0-5.942 1.903-7.192 4.631L41.195 49.8c-0.803-3.519-3.951-6.154-7.709-6.154-4.363 0-7.913 3.55-7.913 7.913 0 1.309 0.325 2.543 0.89 3.631l-7.214 7.216c-1.016-0.475-2.143-0.747-3.335-0.747C11.55 61.658 8 65.208 8 69.571s3.55 7.913 7.913 7.913c4.364 0 7.914-3.55 7.914-7.913 0-1.207-0.279-2.347-0.765-3.371l7.35-7.351c0.945 0.4 1.984 0.622 3.074 0.622 3.07 0 5.73-1.76 7.042-4.32l12.538 2.437c0.929 3.337 3.988 5.797 7.617 5.797 4.363 0 7.913-3.55 7.913-7.913 0-1.019-0.2-1.989-0.553-2.885l13.229-13.228c0.83 0.296 1.721 0.467 2.651 0.467 4.363 0 7.913-3.55 7.913-7.913S88.287 24 83.924 24zM15.913 72.104c-1.397 0-2.533-1.137-2.533-2.533 0-1.397 1.136-2.533 2.533-2.533 1.397 0 2.534 1.136 2.534 2.533C18.447 70.968 17.311 72.104 15.913 72.104zM33.486 54.092c-1.397 0-2.534-1.137-2.534-2.533 0-1.397 1.137-2.533 2.534-2.533s2.534 1.136 2.534 2.533C36.02 52.955 34.883 54.092 33.486 54.092zM60.683 58.005c-1.397 0-2.533-1.137-2.533-2.533 0-1.397 1.136-2.533 2.533-2.533 1.396 0 2.533 1.136 2.533 2.533C63.216 56.868 62.079 58.005 60.683 58.005zM83.924 34.446c-1.397 0-2.533-1.136-2.533-2.533s1.136-2.533 2.533-2.533c1.396 0 2.533 1.136 2.533 2.533S85.32 34.446 83.924 34.446z" fill="#1c1c1c" data-fill-palette-color="background"></path></svg></g></svg></g></svg></g></svg></g><g></g></svg></g></svg></g><g><path d="M146.607 37.008A100.572 100.572 0 0 1 248.913 37.008L245.014 37.008A96.673 96.673 0 0 0 150.506 37.008L146.607 37.008M146.607 210.192A100.572 100.572 0 0 0 248.913 210.192L245.014 210.192A96.673 96.673 0 0 1 150.506 210.192L146.607 210.192" fill="#4a596d" stroke="transparent" data-fill-palette-color="tertiary"></path></g></svg></g><defs></defs></svg><rect width="395.52" height="247.2" fill="none" stroke="none" visibility="hidden"></rect></g></svg></g></svg>